<svg xmlns="http://www.w3.org/2000/svg" xmlns:xlink="http://www.w3.org/1999/xlink" width="500" zoomAndPan="magnify" viewBox="0 0 375 149.999998" height="200" preserveAspectRatio="xMidYMid meet" version="1.0"><defs><g/><clipPath id="id1"><path d="M 9.441406 68 L 93.441406 68 L 93.441406 123.144531 L 9.441406 123.144531 Z M 9.441406 68 " clip-rule="nonzero"/></clipPath><clipPath id="id2"><path d="M 9.441406 27.144531 L 93.441406 27.144531 L 93.441406 82 L 9.441406 82 Z M 9.441406 27.144531 " clip-rule="nonzero"/></clipPath></defs><g fill="rgb(54.899597%, 32.159424%, 100%)" fill-opacity="1"><g transform="translate(109.15203, 94.124997)"><g><path d="M 17.957031 0.738281 C 22.714844 0.738281 26.792969 -1.246094 29.457031 -4.53125 L 30.023438 0 L 33.933594 0 L 33.933594 -41.917969 L 29.171875 -41.917969 L 29.171875 -25.265625 C 26.511719 -28.324219 22.546875 -30.136719 17.957031 -30.136719 C 9.234375 -30.136719 2.945312 -23.621094 2.945312 -14.726562 C 2.945312 -5.777344 9.234375 0.738281 17.957031 0.738281 Z M 7.703125 -14.726562 C 7.703125 -21.074219 12.179688 -25.605469 18.523438 -25.605469 C 24.925781 -25.605469 29.34375 -21.074219 29.34375 -14.726562 C 29.34375 -8.328125 24.925781 -3.851562 18.523438 -3.851562 C 12.179688 -3.851562 7.703125 -8.328125 7.703125 -14.726562 Z M 7.703125 -14.726562 "/></g></g></g><g fill="rgb(54.899597%, 32.159424%, 100%)" fill-opacity="1"><g transform="translate(148.344574, 94.124997)"><g><path d="M 14.898438 0.453125 C 19.65625 0.453125 23.394531 -1.078125 26.058594 -4.078125 L 26.566406 0 L 30.476562 0 L 30.476562 -18.695312 C 30.476562 -25.492188 25.320312 -30.136719 17.617188 -30.136719 C 11.214844 -30.136719 6.402344 -26.679688 5.097656 -21.015625 L 9.914062 -21.015625 C 10.875 -23.90625 13.878906 -25.71875 17.675781 -25.71875 C 22.660156 -25.71875 25.71875 -22.941406 25.71875 -18.355469 L 25.71875 -17.277344 L 13.707031 -17.277344 C 7.589844 -17.277344 3.570312 -13.820312 3.570312 -8.496094 C 3.570312 -2.945312 7.816406 0.453125 14.898438 0.453125 Z M 8.328125 -8.554688 C 8.328125 -11.328125 10.59375 -13.085938 13.878906 -13.085938 L 25.773438 -13.085938 C 25.605469 -7.648438 21.1875 -3.796875 15.066406 -3.796875 C 10.933594 -3.796875 8.328125 -5.664062 8.328125 -8.554688 Z M 8.328125 -8.554688 "/></g></g></g><g fill="rgb(54.899597%, 32.159424%, 100%)" fill-opacity="1"><g transform="translate(183.45928, 94.124997)"><g><path d="M 17.957031 0 L 22.375 0 L 22.375 -4.589844 L 18.183594 -4.589844 C 14.273438 -4.589844 12.460938 -6.570312 12.460938 -10.820312 L 12.460938 -25.039062 L 21.980469 -25.039062 L 21.980469 -29.398438 L 12.460938 -29.398438 L 12.460938 -36.707031 L 8.78125 -36.707031 L 8.328125 -32.742188 C 7.988281 -30.078125 7.195312 -29.398438 4.476562 -29.398438 L 1.53125 -29.398438 L 1.53125 -25.039062 L 7.703125 -25.039062 L 7.703125 -10.59375 C 7.703125 -3.851562 11.441406 0 17.957031 0 Z M 17.957031 0 "/></g></g></g><g fill="rgb(54.899597%, 32.159424%, 100%)" fill-opacity="1"><g transform="translate(208.605943, 94.124997)"><g><path d="M 14.898438 0.453125 C 19.65625 0.453125 23.394531 -1.078125 26.058594 -4.078125 L 26.566406 0 L 30.476562 0 L 30.476562 -18.695312 C 30.476562 -25.492188 25.320312 -30.136719 17.617188 -30.136719 C 11.214844 -30.136719 6.402344 -26.679688 5.097656 -21.015625 L 9.914062 -21.015625 C 10.875 -23.90625 13.878906 -25.71875 17.675781 -25.71875 C 22.660156 -25.71875 25.71875 -22.941406 25.71875 -18.355469 L 25.71875 -17.277344 L 13.707031 -17.277344 C 7.589844 -17.277344 3.570312 -13.820312 3.570312 -8.496094 C 3.570312 -2.945312 7.816406 0.453125 14.898438 0.453125 Z M 8.328125 -8.554688 C 8.328125 -11.328125 10.59375 -13.085938 13.878906 -13.085938 L 25.773438 -13.085938 C 25.605469 -7.648438 21.1875 -3.796875 15.066406 -3.796875 C 10.933594 -3.796875 8.328125 -5.664062 8.328125 -8.554688 Z M 8.328125 -8.554688 "/></g></g></g><g fill="rgb(54.899597%, 32.159424%, 100%)" fill-opacity="1"><g transform="translate(243.720649, 94.124997)"><g><path d="M 17.957031 0 L 22.375 0 L 22.375 -4.589844 L 18.183594 -4.589844 C 14.273438 -4.589844 12.460938 -6.570312 12.460938 -10.820312 L 12.460938 -25.039062 L 21.980469 -25.039062 L 21.980469 -29.398438 L 12.460938 -29.398438 L 12.460938 -36.707031 L 8.78125 -36.707031 L 8.328125 -32.742188 C 7.988281 -30.078125 7.195312 -29.398438 4.476562 -29.398438 L 1.53125 -29.398438 L 1.53125 -25.039062 L 7.703125 -25.039062 L 7.703125 -10.59375 C 7.703125 -3.851562 11.441406 0 17.957031 0 Z M 17.957031 0 "/></g></g></g><g fill="rgb(54.899597%, 32.159424%, 100%)" fill-opacity="1"><g transform="translate(268.867311, 94.124997)"><g><path d="M 5.269531 0 L 10.027344 0 L 10.027344 -13.652344 C 10.027344 -22.035156 14.21875 -24.980469 19.542969 -24.980469 L 22.433594 -24.980469 L 22.433594 -29.398438 L 19.769531 -29.398438 C 14.785156 -29.398438 11.839844 -27.8125 9.742188 -24.300781 L 9.175781 -29.398438 L 5.269531 -29.398438 Z M 5.269531 0 "/></g></g></g><g fill="rgb(54.899597%, 32.159424%, 100%)" fill-opacity="1"><g transform="translate(293.560879, 94.124997)"><g><path d="M 14.898438 0.453125 C 19.65625 0.453125 23.394531 -1.078125 26.058594 -4.078125 L 26.566406 0 L 30.476562 0 L 30.476562 -18.695312 C 30.476562 -25.492188 25.320312 -30.136719 17.617188 -30.136719 C 11.214844 -30.136719 6.402344 -26.679688 5.097656 -21.015625 L 9.914062 -21.015625 C 10.875 -23.90625 13.878906 -25.71875 17.675781 -25.71875 C 22.660156 -25.71875 25.71875 -22.941406 25.71875 -18.355469 L 25.71875 -17.277344 L 13.707031 -17.277344 C 7.589844 -17.277344 3.570312 -13.820312 3.570312 -8.496094 C 3.570312 -2.945312 7.816406 0.453125 14.898438 0.453125 Z M 8.328125 -8.554688 C 8.328125 -11.328125 10.59375 -13.085938 13.878906 -13.085938 L 25.773438 -13.085938 C 25.605469 -7.648438 21.1875 -3.796875 15.066406 -3.796875 C 10.933594 -3.796875 8.328125 -5.664062 8.328125 -8.554688 Z M 8.328125 -8.554688 "/></g></g></g><g fill="rgb(54.899597%, 32.159424%, 100%)" fill-opacity="1"><g transform="translate(328.675585, 94.124997)"><g><path d="M 5.269531 0 L 10.027344 0 L 10.027344 -29.398438 L 5.269531 -29.398438 Z M 3.796875 -37.953125 C 3.796875 -35.859375 5.324219 -34.273438 7.648438 -34.273438 C 9.96875 -34.273438 11.441406 -35.859375 11.441406 -37.953125 C 11.441406 -40.105469 9.96875 -41.691406 7.648438 -41.691406 C 5.324219 -41.691406 3.796875 -40.105469 3.796875 -37.953125 Z M 3.796875 -37.953125 "/></g></g></g><g fill="rgb(54.899597%, 32.159424%, 100%)" fill-opacity="1"><g transform="translate(343.967478, 94.124997)"><g><path d="M 5.269531 0 L 10.027344 0 L 10.027344 -14.839844 C 10.027344 -21.300781 13.933594 -25.605469 19.429688 -25.605469 C 24.585938 -25.605469 27.757812 -21.867188 27.757812 -15.917969 L 27.757812 0 L 32.515625 0 L 32.515625 -16.371094 C 32.515625 -24.753906 27.871094 -30.136719 20.054688 -30.136719 C 16.085938 -30.136719 12.234375 -28.605469 9.6875 -25.09375 L 9.175781 -29.398438 L 5.269531 -29.398438 Z M 5.269531 0 "/></g></g></g><g clip-path="url(#id1)"><path fill="rgb(54.899597%, 32.159424%, 100%)" d="M 93.300781 110.113281 C 93.300781 110.714844 93.152344 111.3125 92.703125 111.761719 L 81.921875 122.546875 C 81.472656 122.996094 80.871094 123.144531 80.273438 123.144531 C 79.671875 123.144531 79.074219 122.84375 78.625 122.546875 L 51.667969 95.4375 L 24.5625 122.394531 C 24.113281 122.84375 23.511719 122.996094 22.914062 122.996094 C 22.3125 122.996094 21.714844 122.695312 21.265625 122.394531 L 10.484375 111.613281 C 9.585938 110.714844 9.585938 109.367188 10.484375 108.46875 L 49.722656 69.226562 C 50.171875 68.777344 50.917969 68.480469 51.519531 68.628906 C 52.117188 68.628906 52.867188 68.777344 53.316406 69.226562 L 92.703125 108.46875 C 93.152344 108.917969 93.300781 109.515625 93.300781 110.113281 Z M 80.273438 117.753906 L 87.910156 110.113281 L 51.667969 73.871094 L 15.425781 110.113281 L 23.0625 117.753906 L 50.171875 90.644531 C 51.070312 89.746094 52.417969 89.746094 53.316406 90.644531 Z M 80.273438 117.753906 " fill-opacity="1" fill-rule="nonzero"/></g><g clip-path="url(#id2)"><path fill="rgb(54.899597%, 32.159424%, 100%)" d="M 93.300781 68.777344 C 93.300781 69.378906 93.152344 69.976562 92.703125 70.425781 L 81.921875 81.210938 C 81.472656 81.660156 80.871094 81.808594 80.273438 81.808594 C 79.671875 81.808594 79.074219 81.507812 78.625 81.210938 L 51.667969 54.101562 L 24.5625 81.058594 C 24.113281 81.507812 23.511719 81.660156 22.914062 81.660156 C 22.3125 81.660156 21.714844 81.359375 21.265625 81.058594 L 10.484375 70.277344 C 9.585938 69.378906 9.585938 68.03125 10.484375 67.132812 L 49.722656 27.894531 C 50.171875 27.445312 50.917969 27.144531 51.519531 27.292969 C 52.117188 27.292969 52.867188 27.445312 53.316406 27.894531 L 92.703125 67.132812 C 93.152344 67.582031 93.300781 68.179688 93.300781 68.777344 Z M 80.273438 76.265625 L 87.910156 68.628906 L 51.667969 32.535156 L 15.425781 68.777344 L 23.0625 76.417969 L 50.171875 49.308594 C 51.070312 48.410156 52.417969 48.410156 53.316406 49.308594 Z M 80.273438 76.265625 " fill-opacity="1" fill-rule="nonzero"/></g></svg>