<svg xmlns="http://www.w3.org/2000/svg" xmlns:xlink="http://www.w3.org/1999/xlink" width="500" zoomAndPan="magnify" viewBox="0 0 375 149.999998" height="200" preserveAspectRatio="xMidYMid meet" version="1.0"><defs><g/><clipPath id="id1"><path d="M 9.441406 68 L 93.441406 68 L 93.441406 123.144531 L 9.441406 123.144531 Z M 9.441406 68 " clip-rule="nonzero"/></clipPath><clipPath id="id2"><path d="M 9.441406 27.144531 L 93.441406 27.144531 L 93.441406 82 L 9.441406 82 Z M 9.441406 27.144531 " clip-rule="nonzero"/></clipPath></defs><g fill="rgb(100%, 100%, 100%)" fill-opacity="1"><g transform="translate(111.542655, 93.47499)"><g><path d="M 17.640625 0.722656 C 22.316406 0.722656 26.324219 -1.222656 28.9375 -4.453125 L 29.496094 0 L 33.335938 0 L 33.335938 -41.179688 L 28.660156 -41.179688 L 28.660156 -24.820312 C 26.042969 -27.824219 22.148438 -29.605469 17.640625 -29.605469 C 9.070312 -29.605469 2.894531 -23.207031 2.894531 -14.46875 C 2.894531 -5.675781 9.070312 0.722656 17.640625 0.722656 Z M 7.570312 -14.46875 C 7.570312 -20.703125 11.964844 -25.152344 18.199219 -25.152344 C 24.484375 -25.152344 28.828125 -20.703125 28.828125 -14.46875 C 28.828125 -8.179688 24.484375 -3.785156 18.199219 -3.785156 C 11.964844 -3.785156 7.570312 -8.179688 7.570312 -14.46875 Z M 7.570312 -14.46875 "/></g></g></g><g fill="rgb(100%, 100%, 100%)" fill-opacity="1"><g transform="translate(150.045979, 93.47499)"><g><path d="M 14.636719 0.445312 C 19.3125 0.445312 22.984375 -1.058594 25.597656 -4.007812 L 26.101562 0 L 29.941406 0 L 29.941406 -18.363281 C 29.941406 -25.042969 24.875 -29.605469 17.308594 -29.605469 C 11.019531 -29.605469 6.289062 -26.210938 5.007812 -20.644531 L 9.738281 -20.644531 C 10.683594 -23.484375 13.632812 -25.265625 17.363281 -25.265625 C 22.261719 -25.265625 25.265625 -22.539062 25.265625 -18.03125 L 25.265625 -16.972656 L 13.46875 -16.972656 C 7.457031 -16.972656 3.507812 -13.578125 3.507812 -8.347656 C 3.507812 -2.894531 7.679688 0.445312 14.636719 0.445312 Z M 8.179688 -8.402344 C 8.179688 -11.128906 10.40625 -12.855469 13.632812 -12.855469 L 25.320312 -12.855469 C 25.152344 -7.511719 20.8125 -3.730469 14.804688 -3.730469 C 10.742188 -3.730469 8.179688 -5.566406 8.179688 -8.402344 Z M 8.179688 -8.402344 "/></g></g></g><g fill="rgb(100%, 100%, 100%)" fill-opacity="1"><g transform="translate(184.543174, 93.47499)"><g><path d="M 17.640625 0 L 21.980469 0 L 21.980469 -4.507812 L 17.863281 -4.507812 C 14.023438 -4.507812 12.242188 -6.457031 12.242188 -10.628906 L 12.242188 -24.597656 L 21.59375 -24.597656 L 21.59375 -28.882812 L 12.242188 -28.882812 L 12.242188 -36.0625 L 8.625 -36.0625 L 8.179688 -32.164062 C 7.847656 -29.550781 7.066406 -28.882812 4.394531 -28.882812 L 1.503906 -28.882812 L 1.503906 -24.597656 L 7.570312 -24.597656 L 7.570312 -10.40625 C 7.570312 -3.785156 11.242188 0 17.640625 0 Z M 17.640625 0 "/></g></g></g><g fill="rgb(100%, 100%, 100%)" fill-opacity="1"><g transform="translate(209.247613, 93.47499)"><g><path d="M 14.636719 0.445312 C 19.3125 0.445312 22.984375 -1.058594 25.597656 -4.007812 L 26.101562 0 L 29.941406 0 L 29.941406 -18.363281 C 29.941406 -25.042969 24.875 -29.605469 17.308594 -29.605469 C 11.019531 -29.605469 6.289062 -26.210938 5.007812 -20.644531 L 9.738281 -20.644531 C 10.683594 -23.484375 13.632812 -25.265625 17.363281 -25.265625 C 22.261719 -25.265625 25.265625 -22.539062 25.265625 -18.03125 L 25.265625 -16.972656 L 13.46875 -16.972656 C 7.457031 -16.972656 3.507812 -13.578125 3.507812 -8.347656 C 3.507812 -2.894531 7.679688 0.445312 14.636719 0.445312 Z M 8.179688 -8.402344 C 8.179688 -11.128906 10.40625 -12.855469 13.632812 -12.855469 L 25.320312 -12.855469 C 25.152344 -7.511719 20.8125 -3.730469 14.804688 -3.730469 C 10.742188 -3.730469 8.179688 -5.566406 8.179688 -8.402344 Z M 8.179688 -8.402344 "/></g></g></g><g fill="rgb(100%, 100%, 100%)" fill-opacity="1"><g transform="translate(243.744808, 93.47499)"><g><path d="M 17.640625 0 L 21.980469 0 L 21.980469 -4.507812 L 17.863281 -4.507812 C 14.023438 -4.507812 12.242188 -6.457031 12.242188 -10.628906 L 12.242188 -24.597656 L 21.59375 -24.597656 L 21.59375 -28.882812 L 12.242188 -28.882812 L 12.242188 -36.0625 L 8.625 -36.0625 L 8.179688 -32.164062 C 7.847656 -29.550781 7.066406 -28.882812 4.394531 -28.882812 L 1.503906 -28.882812 L 1.503906 -24.597656 L 7.570312 -24.597656 L 7.570312 -10.40625 C 7.570312 -3.785156 11.242188 0 17.640625 0 Z M 17.640625 0 "/></g></g></g><g fill="rgb(100%, 100%, 100%)" fill-opacity="1"><g transform="translate(268.449248, 93.47499)"><g><path d="M 5.175781 0 L 9.851562 0 L 9.851562 -13.410156 C 9.851562 -21.648438 13.96875 -24.542969 19.199219 -24.542969 L 22.039062 -24.542969 L 22.039062 -28.882812 L 19.421875 -28.882812 C 14.523438 -28.882812 11.628906 -27.324219 9.570312 -23.875 L 9.015625 -28.882812 L 5.175781 -28.882812 Z M 5.175781 0 "/></g></g></g><g fill="rgb(100%, 100%, 100%)" fill-opacity="1"><g transform="translate(292.708569, 93.47499)"><g><path d="M 14.636719 0.445312 C 19.3125 0.445312 22.984375 -1.058594 25.597656 -4.007812 L 26.101562 0 L 29.941406 0 L 29.941406 -18.363281 C 29.941406 -25.042969 24.875 -29.605469 17.308594 -29.605469 C 11.019531 -29.605469 6.289062 -26.210938 5.007812 -20.644531 L 9.738281 -20.644531 C 10.683594 -23.484375 13.632812 -25.265625 17.363281 -25.265625 C 22.261719 -25.265625 25.265625 -22.539062 25.265625 -18.03125 L 25.265625 -16.972656 L 13.46875 -16.972656 C 7.457031 -16.972656 3.507812 -13.578125 3.507812 -8.347656 C 3.507812 -2.894531 7.679688 0.445312 14.636719 0.445312 Z M 8.179688 -8.402344 C 8.179688 -11.128906 10.40625 -12.855469 13.632812 -12.855469 L 25.320312 -12.855469 C 25.152344 -7.511719 20.8125 -3.730469 14.804688 -3.730469 C 10.742188 -3.730469 8.179688 -5.566406 8.179688 -8.402344 Z M 8.179688 -8.402344 "/></g></g></g><g fill="rgb(100%, 100%, 100%)" fill-opacity="1"><g transform="translate(327.205775, 93.47499)"><g><path d="M 5.175781 0 L 9.851562 0 L 9.851562 -28.882812 L 5.175781 -28.882812 Z M 3.730469 -37.285156 C 3.730469 -35.226562 5.230469 -33.667969 7.511719 -33.667969 C 9.792969 -33.667969 11.242188 -35.226562 11.242188 -37.285156 C 11.242188 -39.398438 9.792969 -40.957031 7.511719 -40.957031 C 5.230469 -40.957031 3.730469 -39.398438 3.730469 -37.285156 Z M 3.730469 -37.285156 "/></g></g></g><g fill="rgb(100%, 100%, 100%)" fill-opacity="1"><g transform="translate(342.228754, 93.47499)"><g><path d="M 5.175781 0 L 9.851562 0 L 9.851562 -14.582031 C 9.851562 -20.925781 13.691406 -25.152344 19.089844 -25.152344 C 24.152344 -25.152344 27.269531 -21.480469 27.269531 -15.636719 L 27.269531 0 L 31.941406 0 L 31.941406 -16.082031 C 31.941406 -24.320312 27.378906 -29.605469 19.699219 -29.605469 C 15.804688 -29.605469 12.019531 -28.101562 9.515625 -24.652344 L 9.015625 -28.882812 L 5.175781 -28.882812 Z M 5.175781 0 "/></g></g></g><g clip-path="url(#id1)"><path fill="rgb(100%, 100%, 100%)" d="M 93.300781 110.113281 C 93.300781 110.714844 93.152344 111.3125 92.703125 111.761719 L 81.921875 122.546875 C 81.472656 122.996094 80.871094 123.144531 80.273438 123.144531 C 79.671875 123.144531 79.074219 122.84375 78.625 122.546875 L 51.667969 95.4375 L 24.5625 122.394531 C 24.113281 122.84375 23.511719 122.996094 22.914062 122.996094 C 22.3125 122.996094 21.714844 122.695312 21.265625 122.394531 L 10.484375 111.613281 C 9.585938 110.714844 9.585938 109.367188 10.484375 108.46875 L 49.722656 69.226562 C 50.171875 68.777344 50.917969 68.480469 51.519531 68.628906 C 52.117188 68.628906 52.867188 68.777344 53.316406 69.226562 L 92.703125 108.46875 C 93.152344 108.917969 93.300781 109.515625 93.300781 110.113281 Z M 80.273438 117.753906 L 87.910156 110.113281 L 51.667969 73.871094 L 15.425781 110.113281 L 23.0625 117.753906 L 50.171875 90.644531 C 51.070312 89.746094 52.417969 89.746094 53.316406 90.644531 Z M 80.273438 117.753906 " fill-opacity="1" fill-rule="nonzero"/></g><g clip-path="url(#id2)"><path fill="rgb(100%, 100%, 100%)" d="M 93.300781 68.777344 C 93.300781 69.378906 93.152344 69.976562 92.703125 70.425781 L 81.921875 81.210938 C 81.472656 81.660156 80.871094 81.808594 80.273438 81.808594 C 79.671875 81.808594 79.074219 81.507812 78.625 81.210938 L 51.667969 54.101562 L 24.5625 81.058594 C 24.113281 81.507812 23.511719 81.660156 22.914062 81.660156 C 22.3125 81.660156 21.714844 81.359375 21.265625 81.058594 L 10.484375 70.277344 C 9.585938 69.378906 9.585938 68.03125 10.484375 67.132812 L 49.722656 27.894531 C 50.171875 27.445312 50.917969 27.144531 51.519531 27.292969 C 52.117188 27.292969 52.867188 27.445312 53.316406 27.894531 L 92.703125 67.132812 C 93.152344 67.582031 93.300781 68.179688 93.300781 68.777344 Z M 80.273438 76.265625 L 87.910156 68.628906 L 51.667969 32.535156 L 15.425781 68.777344 L 23.0625 76.417969 L 50.171875 49.308594 C 51.070312 48.410156 52.417969 48.410156 53.316406 49.308594 Z M 80.273438 76.265625 " fill-opacity="1" fill-rule="nonzero"/></g></svg>